# MagicaVoxel @ ephtracy

# material
mtllib tileselector.mtl
usemtl palette

# normals
vn -1 0 0
vn 1 0 0
vn 0 0 1
vn 0 0 -1
vn 0 -1 0
vn 0 1 0

# texcoords
vt 0.0175781 0.5
vt 0.994141 0.5

# verts and faces
v -12 0 12
v -12 0 6
v -12 0 -6
v -12 0 -12
v -12 1 12
v -12 1 6
v -12 1 -6
v -12 1 -12
f -4/2/1 -7/2/1 -8/2/1
f -3/2/1 -7/2/1 -4/2/1
f -2/2/1 -5/2/1 -6/2/1
f -1/2/1 -5/2/1 -2/2/1
v 6 0 12
v 6 0 11
v 6 0 -11
v 6 0 -12
v 6 1 12
v 6 1 11
v 6 1 -11
v 6 1 -12
f -4/2/1 -7/2/1 -8/2/1
f -3/2/1 -7/2/1 -4/2/1
f -2/2/1 -5/2/1 -6/2/1
f -1/2/1 -5/2/1 -2/2/1
v 7 0 11
v 7 0 10
v 7 0 -10
v 7 0 -11
v 7 1 11
v 7 1 10
v 7 1 -10
v 7 1 -11
f -4/1/1 -7/1/1 -8/1/1
f -3/1/1 -7/1/1 -4/1/1
f -2/1/1 -5/1/1 -6/1/1
f -1/1/1 -5/1/1 -2/1/1
v 10 0 10
v 10 0 7
v 10 0 -7
v 10 0 -10
v 10 1 10
v 10 1 7
v 10 1 -7
v 10 1 -10
f -4/1/1 -7/1/1 -8/1/1
f -3/1/1 -7/1/1 -4/1/1
f -2/1/1 -5/1/1 -6/1/1
f -1/1/1 -5/1/1 -2/1/1
v 11 0 7
v 11 0 6
v 11 0 -6
v 11 0 -7
v 11 1 7
v 11 1 6
v 11 1 -6
v 11 1 -7
f -4/2/1 -7/2/1 -8/2/1
f -3/2/1 -7/2/1 -4/2/1
f -2/2/1 -5/2/1 -6/2/1
f -1/2/1 -5/2/1 -2/2/1
v -11 0 7
v -11 0 6
v -11 0 -6
v -11 0 -7
v -11 1 7
v -11 1 6
v -11 1 -6
v -11 1 -7
f -8/2/2 -7/2/2 -4/2/2
f -4/2/2 -7/2/2 -3/2/2
f -6/2/2 -5/2/2 -2/2/2
f -2/2/2 -5/2/2 -1/2/2
v -10 0 10
v -10 0 7
v -10 0 -7
v -10 0 -10
v -10 1 10
v -10 1 7
v -10 1 -7
v -10 1 -10
f -8/1/2 -7/1/2 -4/1/2
f -4/1/2 -7/1/2 -3/1/2
f -6/1/2 -5/1/2 -2/1/2
f -2/1/2 -5/1/2 -1/1/2
v -7 0 11
v -7 0 10
v -7 0 -10
v -7 0 -11
v -7 1 11
v -7 1 10
v -7 1 -10
v -7 1 -11
f -8/1/2 -7/1/2 -4/1/2
f -4/1/2 -7/1/2 -3/1/2
f -6/1/2 -5/1/2 -2/1/2
f -2/1/2 -5/1/2 -1/1/2
v -6 0 12
v -6 0 11
v -6 0 -11
v -6 0 -12
v -6 1 12
v -6 1 11
v -6 1 -11
v -6 1 -12
f -8/2/2 -7/2/2 -4/2/2
f -4/2/2 -7/2/2 -3/2/2
f -6/2/2 -5/2/2 -2/2/2
f -2/2/2 -5/2/2 -1/2/2
v 12 0 12
v 12 0 6
v 12 0 -6
v 12 0 -12
v 12 1 12
v 12 1 6
v 12 1 -6
v 12 1 -12
f -8/2/2 -7/2/2 -4/2/2
f -4/2/2 -7/2/2 -3/2/2
f -6/2/2 -5/2/2 -2/2/2
f -2/2/2 -5/2/2 -1/2/2
v -12 0 12
v -12 1 12
v -6 0 12
v -6 1 12
v 6 0 12
v 6 1 12
v 12 0 12
v 12 1 12
f -6/2/3 -7/2/3 -8/2/3
f -5/2/3 -7/2/3 -6/2/3
f -2/2/3 -3/2/3 -4/2/3
f -1/2/3 -3/2/3 -2/2/3
v -12 0 -6
v -12 1 -6
v -11 0 -6
v -11 1 -6
v 11 0 -6
v 11 1 -6
v 12 0 -6
v 12 1 -6
f -6/2/3 -7/2/3 -8/2/3
f -5/2/3 -7/2/3 -6/2/3
f -2/2/3 -3/2/3 -4/2/3
f -1/2/3 -3/2/3 -2/2/3
v -11 0 -7
v -11 1 -7
v -10 0 -7
v -10 1 -7
v 10 0 -7
v 10 1 -7
v 11 0 -7
v 11 1 -7
f -6/1/3 -7/1/3 -8/1/3
f -5/1/3 -7/1/3 -6/1/3
f -2/1/3 -3/1/3 -4/1/3
f -1/1/3 -3/1/3 -2/1/3
v -10 0 -10
v -10 1 -10
v -7 0 -10
v -7 1 -10
v 7 0 -10
v 7 1 -10
v 10 0 -10
v 10 1 -10
f -6/1/3 -7/1/3 -8/1/3
f -5/1/3 -7/1/3 -6/1/3
f -2/1/3 -3/1/3 -4/1/3
f -1/1/3 -3/1/3 -2/1/3
v -7 0 -11
v -7 1 -11
v -6 0 -11
v -6 1 -11
v 6 0 -11
v 6 1 -11
v 7 0 -11
v 7 1 -11
f -6/2/3 -7/2/3 -8/2/3
f -5/2/3 -7/2/3 -6/2/3
f -2/2/3 -3/2/3 -4/2/3
f -1/2/3 -3/2/3 -2/2/3
v -7 0 11
v -7 1 11
v -6 0 11
v -6 1 11
v 6 0 11
v 6 1 11
v 7 0 11
v 7 1 11
f -8/2/4 -7/2/4 -6/2/4
f -6/2/4 -7/2/4 -5/2/4
f -4/2/4 -3/2/4 -2/2/4
f -2/2/4 -3/2/4 -1/2/4
v -10 0 10
v -10 1 10
v -7 0 10
v -7 1 10
v 7 0 10
v 7 1 10
v 10 0 10
v 10 1 10
f -8/1/4 -7/1/4 -6/1/4
f -6/1/4 -7/1/4 -5/1/4
f -4/1/4 -3/1/4 -2/1/4
f -2/1/4 -3/1/4 -1/1/4
v -11 0 7
v -11 1 7
v -10 0 7
v -10 1 7
v 10 0 7
v 10 1 7
v 11 0 7
v 11 1 7
f -8/1/4 -7/1/4 -6/1/4
f -6/1/4 -7/1/4 -5/1/4
f -4/1/4 -3/1/4 -2/1/4
f -2/1/4 -3/1/4 -1/1/4
v -12 0 6
v -12 1 6
v -11 0 6
v -11 1 6
v 11 0 6
v 11 1 6
v 12 0 6
v 12 1 6
f -8/2/4 -7/2/4 -6/2/4
f -6/2/4 -7/2/4 -5/2/4
f -4/2/4 -3/2/4 -2/2/4
f -2/2/4 -3/2/4 -1/2/4
v -12 0 -12
v -12 1 -12
v -6 0 -12
v -6 1 -12
v 6 0 -12
v 6 1 -12
v 12 0 -12
v 12 1 -12
f -8/2/4 -7/2/4 -6/2/4
f -6/2/4 -7/2/4 -5/2/4
f -4/2/4 -3/2/4 -2/2/4
f -2/2/4 -3/2/4 -1/2/4
v -12 0 12
v -6 0 12
v 6 0 12
v 12 0 12
v -11 0 11
v -7 0 11
v -6 0 11
v 6 0 11
v 7 0 11
v 11 0 11
v -10 0 10
v -7 0 10
v 7 0 10
v 10 0 10
v -11 0 7
v -10 0 7
v 10 0 7
v 11 0 7
v -12 0 6
v -11 0 6
v 11 0 6
v 12 0 6
v -12 0 -6
v -11 0 -6
v 11 0 -6
v 12 0 -6
v -11 0 -7
v -10 0 -7
v 10 0 -7
v 11 0 -7
v -10 0 -10
v -7 0 -10
v 7 0 -10
v 10 0 -10
v -11 0 -11
v -7 0 -11
v -6 0 -11
v 6 0 -11
v 7 0 -11
v 11 0 -11
v -12 0 -12
v -6 0 -12
v 6 0 -12
v 12 0 -12
f -40/2/5 -43/2/5 -44/2/5
f -39/2/5 -43/2/5 -40/2/5
f -38/2/5 -43/2/5 -39/2/5
f -37/2/5 -41/2/5 -42/2/5
f -36/2/5 -41/2/5 -37/2/5
f -35/2/5 -41/2/5 -36/2/5
f -34/1/5 -39/1/5 -40/1/5
f -33/1/5 -39/1/5 -34/1/5
f -32/1/5 -35/1/5 -36/1/5
f -31/1/5 -35/1/5 -32/1/5
f -30/2/5 -40/2/5 -44/2/5
f -30/1/5 -34/1/5 -40/1/5
f -29/1/5 -34/1/5 -30/1/5
f -28/1/5 -35/1/5 -31/1/5
f -27/2/5 -41/2/5 -35/2/5
f -27/1/5 -35/1/5 -28/1/5
f -26/2/5 -30/2/5 -44/2/5
f -25/2/5 -30/2/5 -26/2/5
f -24/2/5 -41/2/5 -27/2/5
f -23/2/5 -41/2/5 -24/2/5
f -18/2/5 -21/2/5 -22/2/5
f -15/2/5 -19/2/5 -20/2/5
f -14/1/5 -17/1/5 -18/1/5
f -11/1/5 -15/1/5 -16/1/5
f -10/1/5 -13/1/5 -14/1/5
f -10/2/5 -18/2/5 -22/2/5
f -10/1/5 -14/1/5 -18/1/5
f -9/1/5 -13/1/5 -10/1/5
f -6/1/5 -11/1/5 -12/1/5
f -5/1/5 -15/1/5 -11/1/5
f -5/2/5 -19/2/5 -15/2/5
f -5/1/5 -11/1/5 -6/1/5
f -4/2/5 -8/2/5 -9/2/5
f -4/2/5 -10/2/5 -22/2/5
f -4/2/5 -9/2/5 -10/2/5
f -3/2/5 -8/2/5 -4/2/5
f -2/2/5 -6/2/5 -7/2/5
f -2/2/5 -5/2/5 -6/2/5
f -1/2/5 -19/2/5 -5/2/5
f -1/2/5 -5/2/5 -2/2/5
v -12 1 12
v -6 1 12
v 6 1 12
v 12 1 12
v -11 1 11
v -7 1 11
v -6 1 11
v 6 1 11
v 7 1 11
v 11 1 11
v -10 1 10
v -7 1 10
v 7 1 10
v 10 1 10
v -11 1 7
v -10 1 7
v 10 1 7
v 11 1 7
v -12 1 6
v -11 1 6
v 11 1 6
v 12 1 6
v -12 1 -6
v -11 1 -6
v 11 1 -6
v 12 1 -6
v -11 1 -7
v -10 1 -7
v 10 1 -7
v 11 1 -7
v -10 1 -10
v -7 1 -10
v 7 1 -10
v 10 1 -10
v -11 1 -11
v -7 1 -11
v -6 1 -11
v 6 1 -11
v 7 1 -11
v 11 1 -11
v -12 1 -12
v -6 1 -12
v 6 1 -12
v 12 1 -12
f -44/2/6 -43/2/6 -40/2/6
f -40/2/6 -43/2/6 -39/2/6
f -39/2/6 -43/2/6 -38/2/6
f -42/2/6 -41/2/6 -37/2/6
f -37/2/6 -41/2/6 -36/2/6
f -36/2/6 -41/2/6 -35/2/6
f -40/1/6 -39/1/6 -34/1/6
f -34/1/6 -39/1/6 -33/1/6
f -36/1/6 -35/1/6 -32/1/6
f -32/1/6 -35/1/6 -31/1/6
f -44/2/6 -40/2/6 -30/2/6
f -40/1/6 -34/1/6 -30/1/6
f -30/1/6 -34/1/6 -29/1/6
f -31/1/6 -35/1/6 -28/1/6
f -35/2/6 -41/2/6 -27/2/6
f -28/1/6 -35/1/6 -27/1/6
f -44/2/6 -30/2/6 -26/2/6
f -26/2/6 -30/2/6 -25/2/6
f -27/2/6 -41/2/6 -24/2/6
f -24/2/6 -41/2/6 -23/2/6
f -22/2/6 -21/2/6 -18/2/6
f -20/2/6 -19/2/6 -15/2/6
f -18/1/6 -17/1/6 -14/1/6
f -16/1/6 -15/1/6 -11/1/6
f -14/1/6 -13/1/6 -10/1/6
f -22/2/6 -18/2/6 -10/2/6
f -18/1/6 -14/1/6 -10/1/6
f -10/1/6 -13/1/6 -9/1/6
f -12/1/6 -11/1/6 -6/1/6
f -11/1/6 -15/1/6 -5/1/6
f -15/2/6 -19/2/6 -5/2/6
f -6/1/6 -11/1/6 -5/1/6
f -9/2/6 -8/2/6 -4/2/6
f -22/2/6 -10/2/6 -4/2/6
f -10/2/6 -9/2/6 -4/2/6
f -4/2/6 -8/2/6 -3/2/6
f -7/2/6 -6/2/6 -2/2/6
f -6/2/6 -5/2/6 -2/2/6
f -5/2/6 -19/2/6 -1/2/6
f -2/2/6 -5/2/6 -1/2/6
